<?xml version="1.0" encoding="iso-8859-1"?>
<!-- Generator: Adobe Illustrator 19.0.0, SVG Export Plug-In . SVG Version: 6.00 Build 0)  -->
<svg version="1.1" id="Layer_1" xmlns="http://www.w3.org/2000/svg" xmlns:xlink="http://www.w3.org/1999/xlink" x="0px" y="0px"
	 viewBox="0 0 512 512" style="enable-background:new 0 0 512 512;" xml:space="preserve">
<g>
	<g>
		<path style="fill:#C6CBCB;" d="M97.523,431.684c20.609,7.637,334.509-303.678,334.509-303.678s13.662-36.863-15.889-47.816
			c-22.986-8.518-163.046-60.428-163.046-60.428c-26.822-9.939-43.324,3.229-48.531,17.283
			c-5.209,14.053-126.82,342.176-133.328,359.74C64.728,414.35,76.915,424.047,97.523,431.684z"/>
		<path style="fill:#E2E5E7;" d="M302.801,476.69c-5.592,15.088-22.357,22.787-37.447,17.195L96.216,431.199
			c-15.09-5.592-22.789-22.359-17.195-37.447L208.25,45.068c5.592-15.09,22.359-22.789,37.449-17.195l169.136,62.686
			c15.09,5.592,22.789,22.357,17.197,37.447L302.801,476.69z"/>
		
			<rect x="155.984" y="82.133" transform="matrix(0.9377 0.3475 -0.3475 0.9377 102.6048 -74.8705)" style="fill:#2D404E;" width="208.127" height="333.005"/>
		<path style="fill:#586A73;" d="M355.252,89.192c-0.799,2.158-3.342,3.203-5.678,2.336l-55.012-20.389
			c-2.336-0.865-3.582-3.314-2.783-5.471l0,0c0.799-2.156,3.342-3.201,5.678-2.336l55.01,20.389
			C354.803,84.588,356.049,87.035,355.252,89.192L355.252,89.192z"/>
		<path style="fill:#2D404E;" d="M352.459,91.674c-0.904,0.244-1.912,0.215-2.885-0.146l-55.012-20.389
			c-2.336-0.865-3.582-3.314-2.783-5.471l0,0c0.799-2.156,3.342-3.201,5.678-2.336c0,0-2.27,1.195-2.402,3.549
			c-0.133,2.357,6.312,4.93,9.238,6.016C307.223,73.983,352.459,91.674,352.459,91.674z"/>
		<polygon style="opacity:0.19;fill:#E2E5E7;enable-background:new    ;" points="220.365,56.315 119.109,329.522 408.231,148.287 
			415.512,128.641 		"/>
		<g>
			<circle style="fill:#C6CBCB;" cx="191.49" cy="433.318" r="17.545"/>
			<circle style="fill:#D1D5D5;" cx="191.49" cy="433.318" r="14.987"/>
			<path style="fill:#E2E5E7;" d="M202.33,437.334c2.219-5.986-0.834-12.639-6.822-14.857c-5.986-2.219-12.639,0.834-14.857,6.822
				c-2.221,5.99,0.836,12.641,6.822,14.859S200.111,443.324,202.33,437.334z"/>
		</g>
		<path style="fill:#D1D5D5;" d="M366.311,69.43l32.996,12.23c0,0,2.412-1.262,1.703-4.598l-32.996-12.23
			C368.014,64.832,365.086,66.364,366.311,69.43z"/>
		<path style="fill:#E2E5E7;" d="M401.01,77.063l-32.996-12.23c0,0-2.182,1.141-1.99,3.426l34.164,12.656
			C400.793,80.213,401.418,78.983,401.01,77.063z"/>
		
			<ellipse transform="matrix(-0.9377 -0.3475 0.3475 -0.9377 509.6411 152.5528)" style="fill:#E2E5E7;" cx="268.5" cy="30.578" rx="8.181" ry="2.451"/>
	</g>
	<g>
		<path style="fill:#DF584C;" d="M485.157,319.93c-11.729,31.646-36.818,54.438-66.502,64.395l9.068,18.16
			c34.084-12.283,62.736-38.926,76.312-75.557c13.578-36.631,9.209-75.508-8.641-107.037l-18.711,7.861
			C492.705,254.651,496.885,288.287,485.157,319.93z"/>
		<path style="fill:#DF584C;" d="M444.905,305.014c-7.793,21.027-25.426,35.541-45.748,40.277l10.346,20.711
			c25.26-7.566,46.797-26.479,56.666-53.107c9.869-26.633,5.861-55.01-8.369-77.209l-21.342,8.965
			C448.784,261.487,452.7,283.985,444.905,305.014z"/>
	</g>
	<g>
		<path style="fill:#DF584C;" d="M26.843,156.012c-11.729,31.645-7.551,65.285,8.475,92.182l-18.713,7.861
			c-17.848-31.527-22.217-70.408-8.641-107.039s42.227-63.271,76.312-75.555l9.068,18.16
			C63.662,101.58,38.572,124.367,26.843,156.012z"/>
		<path style="fill:#DF584C;" d="M67.095,170.93c-7.795,21.031-3.879,43.529,8.447,60.363L54.2,240.262
			c-14.23-22.203-18.238-50.58-8.369-77.213c9.871-26.629,31.406-45.541,56.668-53.104l10.344,20.709
			C92.521,135.389,74.888,149.903,67.095,170.93z"/>
	</g>
</g>
<g>
</g>
<g>
</g>
<g>
</g>
<g>
</g>
<g>
</g>
<g>
</g>
<g>
</g>
<g>
</g>
<g>
</g>
<g>
</g>
<g>
</g>
<g>
</g>
<g>
</g>
<g>
</g>
<g>
</g>
</svg>
